<svg id="visual" viewBox="0 0 900 600" width="900" height="600" xmlns="http://www.w3.org/2000/svg" xmlns:xlink="http://www.w3.org/1999/xlink" version="1.1"><path d="M0 145L21.5 143.8C43 142.7 86 140.3 128.8 133.7C171.7 127 214.3 116 257.2 110.2C300 104.3 343 103.7 385.8 104.3C428.7 105 471.3 107 514.2 113.7C557 120.3 600 131.7 642.8 135C685.7 138.3 728.3 133.7 771.2 130.5C814 127.3 857 125.7 878.5 124.8L900 124L900 0L878.5 0C857 0 814 0 771.2 0C728.3 0 685.7 0 642.8 0C600 0 557 0 514.2 0C471.3 0 428.7 0 385.8 0C343 0 300 0 257.2 0C214.3 0 171.7 0 128.8 0C86 0 43 0 21.5 0L0 0Z" fill="#006494"></path><path d="M0 100L21.5 99.3C43 98.7 86 97.3 128.8 99.5C171.7 101.7 214.3 107.3 257.2 107.2C300 107 343 101 385.8 103.3C428.7 105.7 471.3 116.3 514.2 120.7C557 125 600 123 642.8 117.2C685.7 111.3 728.3 101.7 771.2 100.8C814 100 857 108 878.5 112L900 116L900 0L878.5 0C857 0 814 0 771.2 0C728.3 0 685.7 0 642.8 0C600 0 557 0 514.2 0C471.3 0 428.7 0 385.8 0C343 0 300 0 257.2 0C214.3 0 171.7 0 128.8 0C86 0 43 0 21.5 0L0 0Z" fill="#0071a8"></path><path d="M0 99L21.5 99.7C43 100.3 86 101.7 128.8 101.5C171.7 101.3 214.3 99.7 257.2 94.3C300 89 343 80 385.8 77.8C428.7 75.7 471.3 80.3 514.2 85.5C557 90.7 600 96.3 642.8 99.5C685.7 102.7 728.3 103.3 771.2 100.3C814 97.3 857 90.7 878.5 87.3L900 84L900 0L878.5 0C857 0 814 0 771.2 0C728.3 0 685.7 0 642.8 0C600 0 557 0 514.2 0C471.3 0 428.7 0 385.8 0C343 0 300 0 257.2 0C214.3 0 171.7 0 128.8 0C86 0 43 0 21.5 0L0 0Z" fill="#007ebc"></path><path d="M0 52L21.5 56.3C43 60.7 86 69.3 128.8 73.5C171.7 77.7 214.3 77.3 257.2 75C300 72.7 343 68.3 385.8 67.8C428.7 67.3 471.3 70.7 514.2 72.8C557 75 600 76 642.8 76C685.7 76 728.3 75 771.2 72.2C814 69.3 857 64.7 878.5 62.3L900 60L900 0L878.5 0C857 0 814 0 771.2 0C728.3 0 685.7 0 642.8 0C600 0 557 0 514.2 0C471.3 0 428.7 0 385.8 0C343 0 300 0 257.2 0C214.3 0 171.7 0 128.8 0C86 0 43 0 21.5 0L0 0Z" fill="#008bd0"></path><path d="M0 31L21.5 33.7C43 36.3 86 41.7 128.8 43.7C171.7 45.7 214.3 44.3 257.2 43.8C300 43.3 343 43.7 385.8 45.3C428.7 47 471.3 50 514.2 51.5C557 53 600 53 642.8 53.5C685.7 54 728.3 55 771.2 52C814 49 857 42 878.5 38.5L900 35L900 0L878.5 0C857 0 814 0 771.2 0C728.3 0 685.7 0 642.8 0C600 0 557 0 514.2 0C471.3 0 428.7 0 385.8 0C343 0 300 0 257.2 0C214.3 0 171.7 0 128.8 0C86 0 43 0 21.5 0L0 0Z" fill="#0098e6"></path><path d="M0 28L21.5 26.2C43 24.3 86 20.7 128.8 20.8C171.7 21 214.3 25 257.2 24.2C300 23.3 343 17.7 385.8 17.3C428.7 17 471.3 22 514.2 22.8C557 23.7 600 20.3 642.8 18.3C685.7 16.3 728.3 15.7 771.2 18C814 20.3 857 25.7 878.5 28.3L900 31L900 0L878.5 0C857 0 814 0 771.2 0C728.3 0 685.7 0 642.8 0C600 0 557 0 514.2 0C471.3 0 428.7 0 385.8 0C343 0 300 0 257.2 0C214.3 0 171.7 0 128.8 0C86 0 43 0 21.5 0L0 0Z" fill="#00a6fb"></path></svg>